# xmcd
#
# Track frame offsets:
#	150
#	20543
#	35903
#	50856
#	66997
#	87235
#	106335
#	126243
#	145338
#	164558
#	191570
#	214964
#
# Disc length: 3336 seconds
#
# Revision: 3
# Processed by: cddbd v1.5.2PL0 Copyright (c) Steve Scherf et al.
# Submitted via: EZCDAudioConverter 8.0.2.1
#
DISCID=be0d060c
DTITLE=Various Artist - Nếu Xuân Này Em Lấy Chồng
DYEAR=2011
DGENRE=Traditional Country
TTITLE0=Đặng Thế Luân, Băng Tâm - Đám cưới đầu xuân
TTITLE1=Tường Khuê - Nếu Xuân Này Em Đi Lấy Chồng
TTITLE2=Y Phụng - Ngày xuân thăm nhau
TTITLE3=Giang Tử - Tôi chưa có mùa xuân
TTITLE4=Tâm Đoan - Em đi chùa Hương
TTITLE5=Sơn Ca, Chí Tâm - Ngày xuân vui cưới
TTITLE6=Hoàng Oanh, Trung Chỉnh - Mùa xuân trên cao, Tâm sự ngày xuân
TTITLE7=Hà Thanh Xuân - Khúc hát ân tình
TTITLE8=Mỹ Huyền - Xuân muộn
TTITLE9=Thùy Dương, Tường Nguyên - Ngẫu hứng lý qua cầu
TTITLE10=Thanh Lan, Vũ Khanh - Nụ tầm xuân
TTITLE11=Ngọc Huyền, Phượng Vũ - Tân cổ giao duyên. Áo đẹp nàng dâu
EXTD=
EXTT0=
EXTT1=
EXTT2=
EXTT3=
EXTT4=
EXTT5=
EXTT6=
EXTT7=
EXTT8=
EXTT9=
EXTT10=
EXTT11=
PLAYORDER=
